/vscmnt/brussel_pixiu_data/_data_brussel/112/vsc11236/PredSimResults/SUBJ10mtu3D/worker3.mot
version=1
nRows=9
nColumns=50
inDegrees=yes
endheader
                time	         pelvis_tilt	         pelvis_list	     pelvis_rotation	           pelvis_tx	           pelvis_ty	           pelvis_tz	       hip_flexion_r	     hip_adduction_r	      hip_rotation_r	        knee_angle_r	       ankle_angle_r	         mtp_angle_r	       hip_flexion_l	     hip_adduction_l	      hip_rotation_l	        knee_angle_l	       ankle_angle_l	         mtp_angle_l	    lumbar_extension	      lumbar_bending	     lumbar_rotation	 ercspn_r/activation	 intobl_r/activation	 extobl_r/activation	    abd_r/activation	    add_r/activation	hamstrings_r/activation	bifemsh_r/activation	glut_max_r/activation	iliopsoas_r/activation	rect_fem_r/activation	  vasti_r/activation	gastroc_r/activation	 soleus_r/activation	tib_ant_r/activation	 ercspn_l/activation	 intobl_l/activation	 extobl_l/activation	    abd_l/activation	    add_l/activation	hamstrings_l/activation	bifemsh_l/activation	glut_max_l/activation	iliopsoas_l/activation	rect_fem_l/activation	  vasti_l/activation	gastroc_l/activation	 soleus_l/activation	tib_ant_l/activation	
          1.65936465	         -4.76876053	          1.21149515	         -7.54069206	          2.00783122	          0.82255945	          0.01237151	        -15.54921837	         -0.90039409	          0.27826953	         -5.60411256	          8.45358340	         25.82675521	         31.35928303	         -1.31884976	         -6.19117411	         -6.36765348	          3.91032300	          0.26662880	         -6.15436534	          0.50146107	          6.28894119	          0.05806656	          0.00999999	          0.01000000	          0.05349574	          0.01000000	          0.01387958	          0.21951659	          0.01099646	          0.32146939	          0.01000005	          0.01000000	          0.30782528	          0.25089875	          0.02455589	          0.11469709	          0.17926093	          0.01000001	          0.01000001	          0.11163458	          0.12181736	          0.25686839	          0.02271639	          0.10782002	          0.01000004	          0.01000001	          0.01159831	          0.01000000	          0.28017449	
          1.67042708	         -4.80577013	          1.17144680	         -7.63492465	          2.02331722	          0.82111828	          0.01229638	        -15.71013765	         -0.99043905	         -0.02222196	         -7.16742544	          7.76933080	         27.47989197	         31.28420939	         -1.21631081	         -5.95407590	         -7.92457635	          3.64452955	          0.26425699	         -5.96475340	          0.08902044	          6.56505247	          0.09463022	          0.00999999	          0.01000000	          0.04516795	          0.01000013	          0.01458790	          0.18534401	          0.01184375	          0.27142561	          0.01000002	          0.01000000	          0.27585691	          0.24077609	          0.02073322	          0.09684197	          0.15135503	          0.01000001	          0.00999999	          0.15159867	          0.10465669	          0.21820750	          0.05972889	          0.09103546	          0.01000001	          0.00999999	          0.01925193	          0.01198225	          0.29840594	
          1.68148951	         -4.83385973	          1.14166769	         -7.68706736	          2.03910033	          0.81985937	          0.01214792	        -15.76414252	         -1.09587333	         -0.35715246	         -8.95542766	          6.95744727	         29.08604089	         31.04878627	         -1.12365716	         -5.66800159	         -9.38500074	          3.25922704	          0.25480001	         -5.75376677	         -0.34430387	          6.81562931	          0.10554289	          0.00999999	          0.01000000	          0.03813657	          0.01000005	          0.01231801	          0.15649114	          0.01000002	          0.22917225	          0.01000004	          0.01000000	          0.23291372	          0.22488542	          0.01750564	          0.08737627	          0.12779329	          0.01000001	          0.03592156	          0.12799902	          0.09150209	          0.18423872	          0.09350802	          0.07686379	          0.01000000	          0.00999999	          0.01625495	          0.01011695	          0.37281949	
          1.69255194	         -4.85473650	          1.11045758	         -7.69248830	          2.05497403	          0.81891630	          0.01188395	        -15.63987969	         -1.20559461	         -0.72663487	        -11.06118044	          6.01318460	         30.56910845	         30.73613006	         -1.02626592	         -5.45213528	        -10.68975324	          2.75548834	          0.24198476	         -5.54638452	         -0.77685986	          7.03527556	          0.13476660	          0.00999999	          0.01000000	          0.03219977	          0.01000002	          0.01358764	          0.13212986	          0.01000002	          0.19349655	          0.01000004	          0.01000000	          0.19665558	          0.20771481	          0.01478050	          0.10353831	          0.10789945	          0.01000000	          0.08906275	          0.16512087	          0.07725779	          0.15555792	          0.11267872	          0.06489825	          0.01000000	          0.01000000	          0.01372451	          0.00999999	          0.41785694	
          1.70361437	         -4.86770565	          1.07697209	         -7.65568761	          2.07079334	          0.81840065	          0.01151363	        -15.28640381	         -1.32142711	         -1.13357122	        -13.54719172	          4.94047051	         31.80301145	         30.42837893	         -0.92372494	         -5.30109448	        -12.02100639	          2.33701678	          0.22692470	         -5.35481041	         -1.20602772	          7.22268837	          0.16559188	          0.00999999	          0.01000000	          0.02718717	          0.02475158	          0.02317168	          0.11156094	          0.01000002	          0.16337456	          0.01000002	          0.01000001	          0.16604181	          0.18123569	          0.01247959	          0.10891281	          0.09110253	          0.01000000	          0.12572212	          0.21415523	          0.06651326	          0.13134191	          0.12544139	          0.05479541	          0.01000001	          0.01000004	          0.01158799	          0.01000000	          0.43669416	
          1.71467680	         -4.87262199	          1.04165056	         -7.58108838	          2.08646771	          0.81838468	          0.01104862	        -14.66618565	         -1.44782551	         -1.58846418	        -16.45711478	          3.76066118	         32.60646072	         30.15716126	         -0.81832261	         -5.19776576	        -13.44119057	          2.09820202	          0.21204431	         -5.18291463	         -1.62944460	          7.37888819	          0.18774065	          0.00999999	          0.01000000	          0.02295489	          0.08457647	          0.02175145	          0.09419403	          0.01000000	          0.13794172	          0.01000001	          0.01000000	          0.14019375	          0.15302237	          0.01053687	          0.10913607	          0.07692042	          0.01000000	          0.14919624	          0.24539544	          0.06215340	          0.11089566	          0.12864060	          0.04626530	          0.01000000	          0.04112086	          0.01000000	          0.01000000	          0.43859284	
          1.72573923	         -4.87092958	          0.99945717	         -7.46933420	          2.10193274	          0.81894328	          0.01051141	        -13.74528152	         -1.58450873	         -2.11434387	        -19.82687909	          2.48379389	         32.78189221	         29.86983005	         -0.71112385	         -5.12402630	        -14.84508278	          2.05518266	          0.19743886	         -5.03276323	         -2.04059883	          7.50276484	          0.19730783	          0.01000000	          0.01000000	          0.01938145	          0.14504123	          0.02018877	          0.07953066	          0.00999999	          0.11646806	          0.01000001	          0.00999999	          0.11836951	          0.12920107	          0.00999999	          0.10544770	          0.06494606	          0.01000000	          0.16026442	          0.26400920	          0.06163768	          0.09363232	          0.12222414	          0.03906309	          0.01000000	          0.07212147	          0.01000001	          0.01000000	          0.42270202	
          1.73680166	         -4.86449307	          0.94554415	         -7.32025634	          2.11715322	          0.82009426	          0.00992629	        -12.50881332	         -1.73677242	         -2.71288375	        -23.63697674	          1.00820393	         32.30739844	         29.49706741	         -0.59942710	         -5.05378787	        -16.10398190	          2.21225666	          0.18702957	         -4.90495367	         -2.43475568	          7.59233062	          0.19567580	          0.01000000	          0.01000000	          0.01636430	          0.20212406	          0.02305148	          0.06714998	          0.00999999	          0.09833725	          0.01000000	          0.00999999	          0.09994269	          0.10908808	          0.00999999	          0.09715809	          0.05483578	          0.01000000	          0.16105118	          0.26789978	          0.06244320	          0.07905640	          0.11242998	          0.03298206	          0.01000000	          0.09498474	          0.01000000	          0.01000000	          0.39641553	
          1.74786409	         -4.85514874	          0.87473169	         -7.13298751	          2.13210095	          0.82178722	          0.00931369	        -10.96843888	         -1.90979080	         -3.36764162	        -27.80185633	         -0.79892916	         31.22651992	         28.99237844	         -0.48314743	         -4.96248990	        -17.12527023	          2.55093887	          0.19019859	         -4.80201878	         -2.80755868	          7.64534717	          0.18863096	          0.01000000	          0.01000000	          0.01381684	          0.25117726	          0.01972664	          0.05669664	          0.00999999	          0.08302889	          0.01000000	          0.00999999	          0.08438441	          0.09210612	          0.00999999	          0.08203347	          0.04629938	          0.01000000	          0.15772513	          0.24746204	          0.06627917	          0.06674954	          0.09492787	          0.02784768	          0.01000000	          0.12402779	          0.01000000	          0.01000000	          0.35713858	
